 <svg  version="1.0" xmlns="http://www.w3.org/2000/svg"  width="900.000000pt" height="900.000000pt" viewBox="0 0 900.000000 900.000000"  preserveAspectRatio="xMidYMid meet">  <g transform="translate(0.000000,900.000000) scale(0.100000,-0.100000)" fill="#ffffff" stroke="none"> <path d="M4233 8698 c-11 -18 -40 -64 -62 -103 -23 -38 -46 -77 -51 -85 -29 -47 -188 -305 -202 -328 -10 -15 -22 -36 -28 -47 -6 -11 -18 -32 -28 -47 -25 -39 -105 -166 -117 -186 -6 -9 -23 -37 -39 -62 -263 -411 -479 -725 -627 -914 -70 -88 -69 -91 13 -115 24 -7 57 -17 73 -22 73 -25 139 -39 146 -32 7 8 49 86 152 283 78 151 150 282 194 355 7 11 15 27 19 35 4 8 34 59 66 112 32 53 58 100 58 104 0 3 13 23 29 43 15 20 30 41 32 46 2 6 27 43 54 83 28 40 55 81 60 90 28 48 155 182 171 182 12 0 14 -71 14 -408 0 -456 -3 -434 73 -471 94 -46 195 -13 316 103 268 256 568 500 821 667 190 126 240 156 345 210 33 16 67 34 75 38 8 5 47 24 85 41 39 18 83 38 98 46 16 8 36 14 46 14 9 0 26 7 37 15 22 16 60 20 69 5 3 -5 1 -17 -4 -27 -11 -19 -57 -148 -71 -198 -5 -16 -18 -55 -30 -85 -12 -30 -26 -68 -30 -85 -9 -30 -23 -71 -120 -345 -28 -80 -55 -158 -60 -175 -4 -16 -14 -46 -21 -65 -6 -19 -17 -51 -24 -70 -7 -19 -18 -51 -24 -70 -7 -19 -16 -48 -21 -65 -11 -39 -29 -91 -46 -133 -20 -48 -17 -139 6 -187 51 -107 138 -150 295 -147 129 2 392 19 404 26 7 5 59 12 116 16 57 5 113 14 124 19 11 6 43 11 71 11 29 0 79 7 113 14 120 29 212 46 239 46 15 0 39 5 55 11 15 6 48 14 73 19 25 4 68 13 95 20 159 40 256 66 300 82 17 5 46 14 65 18 19 5 46 12 59 16 21 6 23 5 16 -16 -4 -12 -14 -30 -23 -39 -10 -10 -42 -48 -72 -86 -30 -37 -60 -73 -65 -79 -6 -6 -32 -38 -59 -71 -72 -90 -107 -134 -146 -180 -19 -23 -51 -61 -70 -85 -52 -65 -98 -121 -131 -160 -16 -19 -29 -38 -29 -42 0 -22 21 -8 310 198 58 41 137 97 175 124 39 27 117 83 175 124 193 139 245 171 300 188 30 10 63 18 72 18 23 0 98 30 98 39 0 4 -12 20 -28 37 -15 16 -77 82 -137 147 -106 115 -110 118 -143 112 -19 -3 -48 -12 -66 -20 -30 -13 -188 -63 -291 -91 -155 -44 -168 -47 -332 -88 -296 -74 -666 -140 -983 -177 -156 -18 -340 -23 -354 -9 -7 7 -10 44 -9 98 1 79 5 96 43 182 23 52 53 127 66 165 12 39 32 95 44 125 40 106 51 135 59 161 5 14 13 34 19 45 6 10 27 60 47 109 159 388 384 743 520 821 11 6 16 17 13 26 -6 16 -259 148 -283 148 -7 0 -46 -19 -87 -43 -40 -24 -80 -46 -88 -50 -8 -4 -22 -11 -30 -17 -23 -15 -313 -185 -330 -193 -8 -4 -28 -16 -45 -27 -16 -11 -39 -24 -50 -30 -11 -6 -33 -19 -50 -29 -16 -11 -47 -29 -67 -40 -21 -11 -57 -33 -80 -48 -24 -15 -51 -32 -60 -38 -78 -45 -255 -157 -413 -261 -49 -32 -98 -63 -107 -69 -90 -52 -505 -353 -573 -415 -71 -64 -126 -56 -143 22 -13 52 -7 117 23 266 40 198 47 230 57 272 6 25 14 65 18 90 4 25 13 68 20 95 6 28 18 76 26 108 44 180 78 296 95 329 15 27 -5 48 -45 48 -18 0 -55 6 -82 14 -27 8 -74 17 -104 20 -54 6 -55 6 -77 -26z"/> <path d="M2396 7344 c-3 -9 -6 -27 -6 -41 0 -14 -6 -46 -14 -72 -8 -25 -21 -71 -30 -101 -33 -120 -103 -345 -125 -402 -5 -12 -17 -43 -26 -68 -24 -61 -38 -94 -74 -170 l-31 -65 22 -18 c13 -10 32 -22 43 -28 11 -5 34 -18 50 -29 17 -10 42 -25 57 -33 40 -22 60 -3 69 69 5 32 13 79 18 104 6 25 10 72 11 105 0 33 4 76 10 95 5 19 14 112 20 205 6 94 14 197 19 230 19 124 10 278 -13 219z"/> <path d="M1506 6253 c-26 -157 -61 -316 -91 -413 -7 -25 -16 -64 -20 -86 -6 -38 -4 -43 24 -64 17 -12 29 -26 26 -31 -4 -5 -39 -9 -80 -9 -55 0 -74 -4 -78 -15 -4 -8 0 -54 8 -102 8 -48 21 -140 30 -203 9 -63 22 -160 30 -215 7 -55 21 -154 30 -220 9 -66 22 -163 30 -215 8 -52 21 -149 30 -215 9 -66 23 -161 30 -211 8 -49 15 -104 15 -121 0 -29 -25 -63 -47 -63 -6 0 -24 -6 -40 -14 -15 -8 -59 -29 -98 -47 -38 -17 -78 -36 -89 -41 -10 -6 -36 -16 -57 -23 -42 -15 -52 -10 -62 35 -57 235 -58 245 -60 443 l-2 182 -85 6 c-47 4 -213 8 -370 9 l-285 2 0 -33 0 -34 295 -3 296 -2 17 -78 c10 -42 17 -85 17 -95 0 -10 7 -48 15 -85 9 -37 22 -96 30 -132 16 -74 46 -196 70 -288 16 -60 14 -102 -5 -102 -5 0 -12 5 -15 10 -9 14 -130 71 -185 87 -67 20 -250 53 -294 53 -150 0 -314 -113 -392 -272 -67 -136 -69 -143 -69 -278 0 -133 12 -182 73 -310 82 -172 254 -407 406 -553 47 -46 176 -117 212 -117 8 0 23 -4 33 -10 42 -22 195 -48 398 -66 l72 -7 6 36 c12 63 6 71 -60 79 -113 12 -280 37 -320 47 -22 6 -59 11 -83 11 -52 0 -90 19 -161 79 -169 143 -305 318 -397 511 -15 30 -33 68 -42 84 -11 21 -15 58 -15 130 1 103 4 115 60 221 29 53 157 168 209 188 27 11 58 23 69 28 40 18 122 32 220 36 133 6 176 -7 299 -89 62 -42 162 -82 183 -74 18 7 16 36 -3 57 -9 10 -17 32 -17 50 -2 29 2 34 28 40 17 4 55 17 85 29 110 43 178 63 193 57 11 -4 17 -26 21 -74 4 -37 13 -104 21 -148 8 -44 15 -96 16 -115 0 -19 8 -75 18 -125 l17 -90 1163 -3 1163 -2 47 24 c142 73 219 90 396 90 166 0 229 -14 373 -80 l72 -34 1104 0 c871 0 1106 3 1114 13 5 6 13 38 17 70 4 31 10 59 14 62 8 4 19 -1 136 -74 47 -29 89 -59 92 -67 8 -22 -3 -55 -36 -105 -27 -40 -29 -50 -21 -78 5 -19 16 -44 24 -57 17 -25 12 -26 141 20 39 14 79 25 90 26 11 0 38 7 60 15 59 21 252 20 307 -2 67 -26 92 -50 106 -101 17 -64 27 -545 13 -637 -24 -160 -37 -201 -80 -239 -12 -11 -31 -36 -43 -55 -95 -159 -316 -246 -558 -219 -52 6 -119 17 -148 26 -110 31 -169 102 -159 188 6 55 -1 64 -52 71 -56 8 -77 -13 -86 -80 -10 -85 -67 -213 -149 -337 -90 -134 -408 -432 -533 -498 -11 -7 -61 -46 -110 -87 -77 -67 -249 -189 -293 -208 -8 -4 -28 -16 -45 -27 -16 -11 -40 -24 -53 -30 -12 -5 -46 -25 -75 -43 -28 -18 -72 -43 -97 -54 -84 -39 -365 -174 -380 -183 -57 -34 -286 -140 -335 -154 -33 -10 -76 -23 -95 -29 -40 -12 -98 -22 -223 -39 -67 -8 -109 -8 -170 1 -161 22 -177 25 -327 68 -30 9 -79 25 -108 35 -30 10 -57 16 -61 13 -13 -7 -43 -95 -38 -108 2 -7 36 -20 73 -30 38 -10 116 -32 174 -48 102 -28 111 -29 333 -29 125 0 271 5 325 10 92 10 106 15 259 90 89 44 169 80 178 80 64 0 389 141 543 235 153 94 433 300 482 356 17 19 59 39 82 39 39 0 142 46 228 102 101 65 239 217 345 378 33 50 30 44 108 186 77 142 75 137 81 156 9 28 21 21 44 -26 28 -56 72 -99 123 -120 144 -59 224 -76 366 -76 123 0 169 9 262 53 55 26 179 142 206 194 11 21 32 56 46 78 47 75 76 166 104 340 17 105 34 619 22 667 -15 59 -163 178 -262 210 -106 35 -156 41 -278 34 -111 -5 -119 -5 -112 12 4 9 11 44 16 76 9 54 8 62 -12 90 -20 27 -21 33 -10 70 6 23 18 65 26 94 25 90 27 92 98 92 74 -1 121 -28 179 -105 21 -28 43 -52 49 -54 16 -5 79 60 79 82 0 27 -97 119 -154 147 -42 20 -64 23 -152 23 -156 0 -174 -12 -194 -138 -12 -74 -28 -115 -45 -115 -13 0 -259 182 -270 200 -7 11 7 162 27 295 5 39 14 111 18 160 4 50 13 128 19 175 6 47 16 123 22 170 7 47 15 123 19 170 4 47 13 123 19 170 6 47 16 123 22 170 7 47 15 123 19 170 4 47 13 123 19 170 26 196 32 260 26 269 -4 7 -963 10 -2824 10 -1550 0 -2826 3 -2835 7 -13 5 -16 21 -17 78 -1 138 -38 351 -105 604 -9 34 -24 2 -38 -85z m5318 -1209 c0 -21 -6 -79 -13 -129 -6 -49 -18 -137 -26 -195 -8 -58 -16 -127 -19 -155 -4 -49 -12 -110 -41 -325 -8 -58 -16 -127 -19 -155 -5 -58 -21 -179 -42 -320 -8 -55 -14 -112 -14 -127 0 -36 -25 -48 -97 -48 -32 0 -134 -6 -228 -15 -336 -30 -597 -40 -1000 -40 -443 0 -544 8 -671 51 -215 73 -354 84 -491 38 -77 -26 -80 -26 -273 -20 -107 4 -440 11 -740 16 -820 15 -1107 25 -1127 42 -7 5 -15 26 -18 47 -7 40 -30 147 -50 231 -8 30 -21 91 -30 135 -18 85 -34 158 -58 265 -16 70 -38 168 -63 283 -9 39 -22 97 -30 128 -26 102 -16 117 58 85 18 -8 53 -22 78 -31 25 -10 59 -23 75 -30 17 -7 48 -20 70 -28 78 -29 130 -49 160 -62 34 -14 103 -41 155 -60 63 -23 124 -47 155 -60 34 -14 103 -41 155 -60 52 -19 121 -46 155 -60 17 -7 49 -20 73 -29 23 -9 61 -23 85 -32 23 -9 56 -22 72 -29 31 -13 87 -35 153 -59 59 -22 124 -47 157 -61 17 -7 49 -20 73 -29 23 -9 61 -23 85 -32 23 -9 56 -22 72 -29 30 -12 76 -30 155 -60 79 -30 125 -48 155 -60 28 -12 53 -22 153 -59 20 -8 73 -28 117 -46 111 -45 146 -58 174 -66 25 -7 55 8 639 307 114 59 297 153 407 209 110 56 295 150 410 210 116 59 300 154 410 210 110 56 286 146 390 200 105 54 195 97 200 96 6 -2 10 -20 9 -42z"/> <path d="M4794 6256 c-11 -30 4 -44 63 -55 32 -6 78 -16 103 -22 25 -6 72 -18 105 -26 79 -19 163 -42 200 -55 17 -5 44 -14 60 -18 56 -16 120 -41 190 -75 64 -32 70 -33 87 -18 12 11 15 20 8 28 -14 17 -193 104 -287 139 -103 39 -121 45 -173 59 -30 9 -80 23 -111 31 -31 9 -97 19 -147 22 -80 6 -92 5 -98 -10z"/> <path d="M7002 6122 c-55 -23 -77 -53 -61 -84 26 -51 111 -123 207 -175 22 -12 345 -28 799 -40 179 -4 200 -11 170 -57 -29 -44 -243 -208 -299 -229 -10 -3 -18 -11 -18 -18 0 -13 42 -8 140 16 184 44 441 80 692 95 180 11 218 17 218 31 0 11 -107 149 -167 216 l-38 43 -287 10 c-158 6 -293 12 -300 15 -7 2 -132 9 -278 15 -146 5 -338 15 -428 20 -217 15 -276 40 -284 119 -4 42 -11 45 -66 23z"/> <path d="M683 6003 c-29 -15 -55 -33 -57 -40 -3 -8 20 -57 52 -111 32 -53 61 -104 65 -112 4 -8 15 -27 25 -42 9 -15 36 -57 60 -95 23 -37 48 -77 55 -88 32 -51 129 -174 166 -209 29 -28 49 -39 71 -39 54 0 53 14 -12 113 -74 112 -68 102 -141 224 -32 53 -72 122 -89 154 -17 31 -34 62 -38 67 -3 6 -21 46 -39 90 -41 99 -45 108 -57 112 -5 1 -32 -9 -61 -24z"/> <path d="M570 5526 c0 -8 5 -18 10 -21 6 -3 10 -15 10 -25 0 -10 6 -31 14 -47 14 -27 32 -68 60 -135 16 -38 33 -77 74 -168 37 -83 57 -138 51 -144 -13 -13 -354 59 -427 90 -38 16 -58 18 -66 5 -9 -15 143 -110 244 -154 116 -49 160 -55 403 -56 218 -1 227 2 164 56 -61 52 -354 377 -427 473 -39 52 -75 97 -81 98 -5 2 -9 10 -9 17 0 8 -4 17 -10 20 -5 3 -10 -1 -10 -9z"/> <path d="M7372 5131 c-30 -26 -31 -29 -15 -43 21 -19 73 -41 158 -69 33 -11 76 -25 95 -31 19 -6 53 -15 75 -19 22 -4 58 -12 80 -17 74 -18 169 -34 265 -44 52 -5 133 -13 180 -18 47 -5 133 -9 193 -9 119 -1 126 4 87 58 -19 27 -23 28 -132 34 -324 16 -692 84 -857 158 -78 35 -88 35 -129 0z"/> <path d="M7514 4538 c-8 -12 28 -46 126 -121 70 -53 80 -59 165 -100 119 -57 211 -83 345 -96 89 -10 102 -2 94 51 -6 34 -9 37 -48 43 -96 14 -174 27 -216 36 -25 6 -64 14 -88 19 -64 14 -188 75 -218 107 -14 15 -30 38 -35 51 -7 19 -16 22 -63 22 -31 0 -58 -5 -62 -12z"/> <path d="M3829 3160 c-62 -53 -73 -82 -67 -183 6 -97 25 -141 95 -209 43 -42 155 -108 183 -108 5 0 18 -4 28 -10 9 -5 58 -19 107 -31 128 -31 421 -34 510 -4 33 10 67 24 75 31 8 6 24 15 35 18 45 14 145 129 145 166 0 19 -4 21 -27 15 -16 -3 -57 -20 -92 -37 -84 -41 -152 -49 -431 -55 -209 -3 -244 -2 -313 16 -96 24 -135 53 -183 134 -33 57 -36 69 -37 138 0 63 4 81 23 107 20 27 21 52 2 52 -4 0 -28 -18 -53 -40z"/> </g> </svg> 